<?xml version="1.0" encoding="utf-8"?>
<!-- Generator: Adobe Illustrator 19.0.0, SVG Export Plug-In . SVG Version: 6.00 Build 0)  -->
<svg version="1.1" id="Layer_1" xmlns="http://www.w3.org/2000/svg" xmlns:xlink="http://www.w3.org/1999/xlink" x="0px" y="0px"
	 viewBox="0 0 25 26" style="enable-background:new 0 0 25 26;" xml:space="preserve">
<style type="text/css">
	.st0{fill:#FFFFFF;}
</style>
<g>
	<g id="XMLID_134_">
		<path id="XMLID_135_" class="st0" d="M24.1,1.7h-2.5V0.9c0-0.5-0.4-0.9-0.9-0.9h-3c-0.5,0-0.9,0.4-0.9,0.9v0.7H8.3V0.9
			C8.3,0.4,7.9,0,7.4,0h-3C3.8,0,3.4,0.4,3.4,0.9v0.7H0.9C0.4,1.7,0,2.1,0,2.6v22.5C0,25.6,0.4,26,0.9,26h23.1
			c0.5,0,0.9-0.4,0.9-0.9V2.6C25,2.1,24.6,1.7,24.1,1.7z M18.6,1.8h1.1v1.5h-1.1V1.8z M5.3,1.8h1.1v1.5H5.3V1.8z M23.1,24.2H1.9V8.1
			h21.3V24.2z M23.1,6.2H1.9V3.5h1.6v0.8c0,0.5,0.4,0.9,0.9,0.9h3c0.5,0,0.9-0.4,0.9-0.9V3.5h8.4v0.8c0,0.5,0.4,0.9,0.9,0.9h3
			c0.5,0,0.9-0.4,0.9-0.9V3.5h1.6V6.2z M21.1,9.6H3.9v13.1h17.3V9.6z M7.7,20.8h-2v-1.9h2V20.8z M7.7,17.1h-2v-1.9h2V17.1z
			 M7.7,13.3h-2v-1.9h2V13.3z M11.6,20.8h-2v-1.9h2V20.8z M11.6,17.1h-2v-1.9h2V17.1z M11.6,13.3h-2v-1.9h2V13.3z M15.4,20.8h-2
			v-1.9h2V20.8z M15.4,17.1h-2v-1.9h2V17.1z M15.4,13.3h-2v-1.9h2V13.3z M19.3,20.8h-2v-1.9h2V20.8z M19.3,17.1h-2v-1.9h2V17.1z
			 M19.3,13.3h-2v-1.9h2V13.3z"/>
	</g>
</g>
</svg>
